<svg width="25" height="24" viewBox="0 0 25 24" fill="none" xmlns="http://www.w3.org/2000/svg">
<path d="M19 22.75C16.66 22.75 14.75 20.84 14.75 18.5V18C14.75 17.59 15.09 17.25 15.5 17.25C15.91 17.25 16.25 17.59 16.25 18V18.5C16.25 20.02 17.48 21.25 19 21.25C20.52 21.25 21.75 20.02 21.75 18.5C21.75 16.98 20.52 15.75 19 15.75H2.5C2.09 15.75 1.75 15.41 1.75 15C1.75 14.59 2.09 14.25 2.5 14.25H19C21.34 14.25 23.25 16.16 23.25 18.5C23.25 20.84 21.34 22.75 19 22.75Z" fill="#292D32"/>
<path d="M19 12.75H2.5C2.09 12.75 1.75 12.41 1.75 12C1.75 11.59 2.09 11.25 2.5 11.25H19C20.52 11.25 21.75 10.02 21.75 8.5C21.75 6.98 20.52 5.75 19 5.75C17.48 5.75 16.25 6.98 16.25 8.5V9C16.25 9.41 15.91 9.75 15.5 9.75C15.09 9.75 14.75 9.41 14.75 9V8.5C14.75 6.16 16.66 4.25 19 4.25C21.34 4.25 23.25 6.16 23.25 8.5C23.25 10.84 21.34 12.75 19 12.75Z" fill="#292D32"/>
<path d="M9.81 9.75012H2.5C2.09 9.75012 1.75 9.41012 1.75 9.00012C1.75 8.59012 2.09 8.25012 2.5 8.25012H9.81C10.88 8.25012 11.75 7.38012 11.75 6.31012C11.75 5.24012 10.88 4.37012 9.81 4.37012C8.74 4.37012 7.87 5.24012 7.87 6.31012V6.69012C7.87 7.10012 7.53 7.44012 7.12 7.44012C6.71 7.44012 6.37 7.11012 6.37 6.69012V6.31012C6.37 4.41012 7.91 2.87012 9.81 2.87012C11.71 2.87012 13.25 4.41012 13.25 6.31012C13.25 8.21012 11.71 9.75012 9.81 9.75012Z" fill="#292D32"/>
</svg>
