<svg width="25" height="24" viewBox="0 0 25 24" fill="none" xmlns="http://www.w3.org/2000/svg">
<path d="M2.5 13.0999L5 11.5999C6.54 10.6799 8.46 10.6799 10 11.5999C11.54 12.5199 13.46 12.5199 15 11.5999C16.54 10.6799 18.46 10.6799 20 11.5999L22.5 13.0999" stroke="#292D32" stroke-width="1.5" stroke-miterlimit="10" stroke-linecap="round" stroke-linejoin="round"/>
<path d="M2.5 3.8999L5 5.3999C6.54 6.3199 8.46 6.3199 10 5.3999C11.54 4.4799 13.46 4.4799 15 5.3999C16.54 6.3199 18.46 6.3199 20 5.3999L22.5 3.8999" stroke="#292D32" stroke-width="1.5" stroke-miterlimit="10" stroke-linecap="round" stroke-linejoin="round"/>
<path d="M2.5 20.0999L5 18.5999C6.54 17.6799 8.46 17.6799 10 18.5999C11.54 19.5199 13.46 19.5199 15 18.5999C16.54 17.6799 18.46 17.6799 20 18.5999L22.5 20.0999" stroke="#292D32" stroke-width="1.5" stroke-miterlimit="10" stroke-linecap="round" stroke-linejoin="round"/>
</svg>
